<?xml version="1.0" encoding="utf-8"?>
<!-- Generator: Adobe Illustrator 28.0.0, SVG Export Plug-In . SVG Version: 6.00 Build 0)  -->
<svg version="1.1" id="Layer_1" xmlns="http://www.w3.org/2000/svg" xmlns:xlink="http://www.w3.org/1999/xlink" x="0px" y="0px"
	 viewBox="0 0 1920 1080" style="enable-background:new 0 0 1920 1080;" xml:space="preserve">
<style type="text/css">
	.st0{fill:#467FA4;}
	.st1{fill-rule:evenodd;clip-rule:evenodd;fill:#467FA4;}
	.st2{fill:#9D9FA2;}
</style>
<path class="st0" d="M467.4,583.7c3.7,0.2,6.5,0.6,6.8,2.1c0.3,1.7,0.4,3.4,0.3,5V629c0.1,1.7,0,3.4-0.3,5c-0.3,1.5-3.1,1.9-6.8,2.2
	v2.7h25.9v-2.5c-3.7-0.3-6.5-0.7-6.8-2.2c-0.3-1.7-0.4-3.3-0.3-5v-17.3h7.8c5.5,0,7.2,3.5,7.5,8.2h2.1v-19.2h-2.2
	c0,4.7-2.3,7.9-7.5,7.9H486v-24.7h10.6c5.8,0,7.8,4.3,9.1,10.2h2.2v-13.2h-40.6C467.4,581.1,467.4,583.7,467.4,583.7z"/>
<path class="st1" d="M636,639.7c17.1,0.3,31.2-13.2,31.5-30.3c0-0.3,0-0.6,0-1c-0.1-15.7-12.9-28.3-28.6-28.2
	c-16.8-0.4-30.8,12.8-31.3,29.6c0,0.2,0,0.4,0,0.6c-0.6,15.6,11.5,28.7,27,29.4c0.4,0,0.8,0,1.2,0L636,639.7z M638.2,636.7
	c-9.3,0-17.6-10.6-17.6-29.9c0-13.9,5.6-23.8,16.3-23.8c8.8,0,18,8.4,18,27.7C654.9,626,649.6,636.7,638.2,636.7L638.2,636.7z"/>
<path class="st0" d="M788.4,590.8c-0.1-1.7,0-3.4,0.3-5c0.3-1.5,3.2-1.9,6.8-2.1v-2.6h-25.9v2.6c3.5,0.2,6.5,0.6,6.8,2.1
	c0.3,1.7,0.4,3.4,0.3,5v25.4c0,14.6,5.5,23.5,24,23.5c10.8,0,21.6-6.6,21.6-23v-23.5c0-1.8,0.1-3.6,0.4-5.4c0.3-2.7,2.5-3.8,7.1-4.1
	v-2.6h-19.2v2.6c4.4,0.2,6.6,1.4,7.1,4.1c0,1.6,0.4,3.5,0.4,5.4v22.6c0,13.1-5.7,18.8-15.7,18.8c-10.6,0-13.8-7.7-13.8-17.6v-26.1
	H788.4z"/>
<path class="st0" d="M985.1,638.9v-45.7c0-1.8,0.1-3.6,0.4-5.4c0.4-2.7,2.6-3.8,7.1-4.1v-2.6h-20.7v2.6c6.4,0.2,8.5,1.4,8.8,4.1
	c0.3,1.8,0.4,3.6,0.5,5.4v30.2H981c-10.8-13.4-23.6-29.2-33.7-42.4h-19.2v2.6c4.5,0,8.6,2.6,10.6,6.6v36.4c0,1.8-0.1,3.6-0.4,5.4
	c-0.4,2.7-2.6,3.8-7.1,4.1v2.7h20.6v-2.5c-6.3-0.3-8.5-1.4-9-4.1c-0.3-1.8-0.4-3.6-0.4-5.4v-33.1h0.2c12.3,14.8,26.2,32.4,36.1,45
	L985.1,638.9z"/>
<path class="st1" d="M1092.2,638.9h26.9c18.7,0,33.1-10.8,33.1-30.5c0-16.9-11.4-27.2-30-27.2h-30v2.6c3.7,0.2,6.5,0.6,6.8,2.1
	c0.3,1.7,0.4,3.4,0.4,5v38c0.1,1.7,0,3.4-0.4,5c-0.3,1.5-3.1,1.9-6.8,2.2V638.9z M1111,584h6c14.9,0,22.8,8.9,22.8,24.7
	c0,20.8-9.6,27.7-21.2,27.7c-6.4,0-7.5-0.6-7.5-9.1v-43.5L1111,584z"/>
<path class="st1" d="M1288,620.4l3.4,9.6c1.3,3.5,0.6,6.2-4,6.2v2.7h23v-2.5c-3.5,0-6-3.1-7.7-7.5c-3-7.9-13-35-17.9-48.6h-5.4
	c-7.1,18.1-16.9,44.9-19.9,51c-1.2,2.9-3.9,4.8-7.1,5v2.5h16v-2.5c-3.8,0-4.9-2.6-3.8-6l3.3-9.8L1288,620.4z M1269.4,616.8l8.9-24
	l0,0l8.2,24H1269.4z"/>
<path class="st0" d="M1434.2,584.1h7.1c7.1,0,8.8,4.3,11.9,9.5h2.2l-2.3-12.6h-49.2l-2.2,12.6h2.2c3-5.2,4.8-9.5,11.9-9.5h7.1V629
	c0.1,1.7,0,3.4-0.4,5c-0.3,1.5-3.1,1.9-6.8,2.2v2.7h25.9v-2.5c-3.7-0.3-6.5-0.7-6.8-2.2c-0.3-1.7-0.4-3.3-0.4-5v-45H1434.2z"/>
<path class="st0" d="M1572.5,590.8c0-1.6,0.1-3.3,0.5-4.9c0.3-1.5,3.1-1.9,6.8-2.1v-2.6h-25.9v2.6c3.7,0.2,6.5,0.6,6.8,2.1
	c0.3,1.7,0.4,3.4,0.3,5v38c0.1,1.7,0,3.4-0.3,5c-0.4,1.5-3.1,1.9-6.8,2.2v2.7h25.9v-2.5c-3.5-0.3-6.5-0.7-6.8-2.2
	c-0.3-1.7-0.4-3.3-0.3-5v-38.4H1572.5z"/>
<path class="st1" d="M1710.1,639.7c17.1,0.4,31.2-13.2,31.5-30.2c0-0.3,0-0.7,0-1c0-15.6-12.6-28.2-28.2-28.2c-0.1,0-0.2,0-0.3,0
	c-16.8-0.4-30.8,12.9-31.3,29.7c0,0.2,0,0.3,0,0.5c-0.6,15.6,11.5,28.7,27,29.4c0.4,0,0.8,0,1.2,0L1710.1,639.7z M1712.2,636.7
	c-9.3,0-17.6-10.6-17.6-29.9c0-13.9,5.6-23.8,16.3-23.8c8.8,0,18,8.4,18,27.7C1728.9,626,1723.7,636.7,1712.2,636.7L1712.2,636.7z"
	/>
<path class="st0" d="M1898.1,638.9v-45.7c0-1.8,0.1-3.6,0.4-5.4c0.4-2.7,2.6-3.8,7.1-4.1v-2.6h-20.8v2.6c6.4,0.2,8.6,1.4,8.8,4.1
	c0.3,1.8,0.4,3.6,0.5,5.4v30.2h-0.2c-10.9-13.4-23.6-29.2-33.7-42.4h-19.2v2.6c4.5,0,8.6,2.6,10.6,6.6v36.4c0,1.8-0.1,3.6-0.4,5.4
	c-0.3,2.7-2.5,3.8-7.1,4.1v2.7h20.8v-2.5c-6.4-0.3-8.6-1.4-9-4.1c-0.3-1.8-0.4-3.6-0.4-5.4v-33.1h0.2c12.2,14.8,26.2,32.4,36,45
	L1898.1,638.9z"/>
<polygon class="st0" points="590,411 568.3,411 555.5,464.2 555.3,464.2 541.7,411 519.5,411 507,464.2 506.8,464.2 494,411 
	467.4,411 492,503.2 516.7,503.2 528.6,452.4 528.9,452.4 541.7,503.2 565.5,503.2 590,411 "/>
<path class="st1" d="M659.9,503.2c-1.7-4.8-2.4-9.9-2.2-15v-24.1c0-9.8,1.1-18.7-7.9-25c-6.7-4.8-17-5.9-25.1-5.9
	c-15.5,0-31.8,4.4-35.8,21.5l24.5,2.3c0.8-5.8,5.2-7.7,10.6-7.7c6.4,0,8,2.4,8,8.6v0.5c-9.1,0.4-18.2,1.8-27,4.3
	c-9.5,3-18,10.2-18,21.2c0,13.7,11.2,20.7,23.9,20.7c8.9,0.6,17.4-3.5,22.4-10.9c0,3.2,0.3,6.4,1,9.5L659.9,503.2z M632,472.4
	c0,7.5,0,16-10.2,16c-4.2,0-7.1-1.9-7.1-6.3c0-8.3,10.6-10.3,17.2-11L632,472.4L632,472.4z"/>
<path class="st0" d="M667.4,483.6c5.1,15.8,19.2,20.8,34.5,20.8s35.5-5.4,35.5-24.3c0.1-7.1-3.6-13.8-9.7-17.5
	c-5.8-3-12.2-4.7-18.7-5.1c-3.9-0.3-7.7-0.8-11.5-1.6c-1.8-0.4-4.1-1.3-4.1-3.5c0-3,6.5-3.5,8.6-3.5c4.7,0,10,1.3,12,6l20.3-3.9
	c-4.6-12.9-18.1-17.9-31.1-17.9c-7.7-0.4-15.3,1.4-22,5.2c-6.5,3.7-10.5,10.5-10.6,18c0,18.3,17.1,21.2,31.4,23.1
	c2.4,0.3,11.5,1,11.5,4.4s-7.5,4.3-10.2,4.3c-5.8,0-13.2-0.8-14.6-7.4L667.4,483.6L667.4,483.6z"/>
<path class="st0" d="M814.2,503.2v-43c0-7.1,0-13.6-3.9-19.5c-3.9-5.9-10.9-7.5-17.6-7.5c-7.6-0.1-14.8,3.4-19.3,9.4V411h-26.6v92.2
	h26.6v-41.3c-0.3-2.3,0.2-4.6,1.5-6.6c1.4-2.2,3.7-3.5,6.3-3.5c5.5,0,6.5,3.9,6.5,8.4v42.9H814.2z"/>
<path class="st1" d="M855.5,434.5h-26.6v68.6h26.6V434.5z M855.5,409.8h-26.6v18.3h26.6v-18.5V409.8z"/>
<path class="st0" d="M871.4,434.5v68.6H898v-39.6c0-5.6,0.7-12,8-12c5.8,0,5.8,5.8,5.8,10v41.6h26.6v-42.4c0-7.1,0-14.9-4.3-20.6
	c-4.3-5.6-11.4-7.1-17.9-7.1c-8.3,0-16.3,3.2-19.5,11h-0.2v-9.7H871.4z"/>
<path class="st1" d="M981.2,502.4l13.2,0.7c3.4,0,7.9,0,7.9,4.4c0,6-10,5.4-14.1,5.4c-4.5,0.1-8.9-0.3-13.3-1.2
	c-2.8-0.5-5.4-1.9-5.4-5.1c0-4,3.5-4.3,6.7-4.3h4.8L981.2,502.4z M982.1,482.4c-2.4,0-7.4,0.2-7.4-3.2s4.4-3.4,6.7-3.4h2.8h3.1
	c13.8,0,31.4-3.8,31.4-21c-0.1-6-2.9-11.7-7.7-15.5c1.3-2.4,5.1-2.5,7.5-2.5l6.6,0.3l0.7-18.4h-1.8l-7.8-0.4
	c-10.6,0-15.6,6.2-17,16.1c-4.2-1-8.5-1.4-12.8-1.3c-14.1,0-33.6,3.7-33.6,21.5c-0.2,7.2,4.3,13.7,11.2,15.8
	c-6.7,2.5-13.2,7.2-13.2,15.2c0.1,4.5,2.5,8.5,6.3,10.9c-5.9,1.7-10,7.1-9.9,13.3c0,16.1,25.8,16.9,37.2,16.9
	c8.8,0.4,17.6-0.6,26.1-3c8.7-3,15.3-9.1,15.3-19c0.2-6.6-2.8-12.9-7.9-17c-5.1-3.2-11-4.9-17-4.7l-18.8-0.8L982.1,482.4z
	 M986.7,463.3c-4.1,0.6-7.9-2.3-8.5-6.4c-0.1-0.6-0.1-1.3,0-1.9c-0.3-4.5,3.1-8.3,7.5-8.6s8.3,3.1,8.6,7.5c0,0.4,0,0.7,0,1.1
	c0.4,4.1-2.5,7.7-6.6,8.2c-0.4,0-0.7,0-1.1,0V463.3z"/>
<path class="st0" d="M1041.2,452v25.9c0,7.4,0,14.1,5.1,19.6c4.8,5.4,12,8.1,19.2,7.1l15.7-2v-19.3c-2.5,0.8-5.1,1.2-7.7,1.2
	c-6.3,0-5.8-3.9-5.8-8.9V452h13.4v-17.5h-13.7v-22.7l-23.1,0.8l-2,21.9h-11.1V452H1041.2z"/>
<path class="st1" d="M1128.3,433.2c-21.5,0-37.7,14.1-37.7,36.2c0,20.8,16.8,35.1,37.7,35.1c20.9,0,37.8-14.1,37.8-35.1
	C1166.1,447.4,1149.8,433.2,1128.3,433.2z M1128.3,450c9.1,0,9.3,12,9.3,18.6c0,18.4-4.4,19.7-9.3,19.7s-9.2-1.3-9.2-19.7
	C1119,461.9,1119,450,1128.3,450z"/>
<path class="st0" d="M1177.4,434.5v68.6h26.6v-39.6c0-5.6,0.7-12,8.1-12c5.8,0,5.8,5.8,5.8,10v41.6h26.6v-42.4
	c0-7.1,0-14.9-4.3-20.6c-4.3-5.6-11.4-7.1-17.9-7.1c-8.3,0-16.2,3.2-19.5,11h-0.4v-9.7H1177.4z"/>
<path class="st1" d="M1385.7,503.2L1369,463c10.9-5,16.2-12.2,16.2-24.3c0.4-8.9-3.9-17.3-11.3-22.2c-7.2-4.1-15.5-6.1-23.8-5.6
	h-46.9v92.3h28.6v-35.3h8.9l13.4,35.3H1385.7z M1331.9,448.3v-17.6h11.4c2.7-0.2,5.5,0.2,8,1.2c2.8,1.5,4.5,4.4,4.4,7.6
	c0,7.9-7.4,8.9-13.6,8.9L1331.9,448.3z"/>
<path class="st1" d="M1439.4,478.6c-1.1,5.9-4.4,8.3-10.6,8.3c-8,0-10.6-5.4-10.3-12.7h45.9v-3.5c0-22.6-14.1-37.3-36.8-37.3
	c-10.1-0.2-20,3.6-27.3,10.6c-6.5,7.1-10.1,16.3-10.1,25.9c-0.1,9.8,4,19.2,11.3,25.8c7.8,6.3,17.6,9.5,27.7,9
	c16.2,0,31-7.7,35.3-24.3l-25.1-1.6L1439.4,478.6z M1418.5,460.7c-0.2-6.3,2.6-11.8,9.6-11.8s9.7,5.1,9.7,11.8H1418.5z"/>
<path class="st0" d="M1471.6,483.6c5.1,15.8,19.2,20.8,34.6,20.8s35.5-5.4,35.5-24.3c0.1-7.1-3.6-13.8-9.7-17.5
	c-5.8-3-12.2-4.7-18.7-5.1c-3.9-0.3-7.7-0.8-11.5-1.6c-1.7-0.4-4-1.3-4-3.5c0-3,6.5-3.5,8.6-3.5c4.7,0,10,1.3,12,6l20.3-3.9
	c-4.6-12.9-18.1-17.9-31-17.9c-7.7-0.4-15.3,1.4-22.1,5.2c-6.5,3.7-10.5,10.5-10.6,18c0,18.3,17,21.2,31.4,23.1
	c2.4,0.3,11.6,1,11.6,4.4s-7.5,4.3-10.2,4.3c-5.8,0-13.2-0.8-14.6-7.4L1471.6,483.6L1471.6,483.6z"/>
<path class="st1" d="M1597.7,478.6c-1.1,5.9-4.4,8.3-10.6,8.3c-8,0-10.6-5.4-10.3-12.7h45.9v-3.5c0-22.6-14.1-37.3-36.8-37.3
	c-10.1-0.2-20,3.6-27.3,10.6c-6.5,7.1-10.1,16.3-10.1,25.9c-0.1,9.8,4,19.2,11.3,25.8c7.8,6.3,17.6,9.5,27.7,9
	c16.2,0,31-7.7,35.3-24.3L1597.7,478.6z M1576.7,460.7c-0.2-6.3,2.6-11.8,9.6-11.8c7,0,9.7,5.1,9.7,11.8H1576.7z"/>
<path class="st1" d="M1702.5,503.2c-1.7-4.8-2.4-9.9-2.2-15v-24.1c0-9.8,1.1-18.7-7.9-25c-6.7-4.8-17.1-5.9-25.2-5.9
	c-15.4,0-31.8,4.4-35.7,21.5l24.5,2.3c0.8-5.8,5.2-7.7,10.6-7.7c6.4,0,8,2.4,8,8.6v0.5c-9.1,0.4-18.2,1.8-27,4.3
	c-9.6,3-18,10.2-18,21.2c0,13.7,11.2,20.7,23.9,20.7c8.9,0.6,17.4-3.5,22.4-10.9c0,3.2,0.3,6.4,1,9.5L1702.5,503.2z M1674.5,472.4
	c0,7.5,0,16-10.2,16c-4.2,0-7.1-1.9-7.1-6.3c0-8.3,10.6-10.3,17.2-11L1674.5,472.4L1674.5,472.4z"/>
<path class="st0" d="M1736.1,448.6v-14.1h-22.7v68.7h26.6v-29.8c-0.4-4,0.3-8.1,1.9-11.8c2.2-3.9,6.6-4.7,10.9-4.7
	c1.7,0,3.4,0.2,5.1,0.7v-24.1l-3.5-0.2c-10.6-0.8-15.6,5.9-17.9,15.4H1736.1z"/>
<path class="st0" d="M1807.5,475.5c-0.7,5-2.8,10.2-8.6,10.2c-8.7,0-8.9-10.6-8.9-16.9s0-17.2,8.5-17.2c5.9,0,7.1,5.4,7.9,10.1v0.7
	l23.5-2c-2-17.2-15.5-27.1-32.4-27.1c-21.2,0-35.3,15.2-35.3,35.9c-0.2,9.7,3.5,19.1,10.2,26.1c6.7,6.5,15.9,10,25.2,9.4
	c17.5,0,30.1-9.4,32.5-27.1L1807.5,475.5L1807.5,475.5z"/>
<path class="st0" d="M1905.3,503.2v-43c0-7.1,0-13.6-3.9-19.5c-3.9-5.9-10.9-7.5-17.6-7.5c-7.6-0.1-14.8,3.4-19.3,9.4V411h-26.6
	v92.2h26.6v-41.3c-0.3-2.3,0.2-4.6,1.5-6.6c1.4-2.2,3.7-3.5,6.3-3.5c5.5,0,6.5,3.9,6.5,8.4v42.9H1905.3z"/>
<path class="st2" d="M201.5,742.7v0.4c-2.8-0.9-5.6-1.8-8.4-2.7l0.2-0.8c2.8,1.1,5.5,2.1,8.3,3.1H201.5z M188.5,737.7v1.1
	c-3.5-1.3-7.1-2.7-10.8-4.1l0.8-1.4c3.4,1.5,6.7,3,10.1,4.4H188.5z M173.7,731.1h0.2l-0.9,1.6c-4-1.7-7.9-3.5-11.8-5.3l1.8-1.8
	c3.5,1.9,7,3.7,10.6,5.4V731.1z M155.3,721.3h0.2l-2.2,2.1c-4.9-2.5-9.6-5.2-14.4-8l3.8-2.2c4.1,2.8,8.3,5.4,12.5,7.9L155.3,721.3z
	 M135.1,708l0.2,0.2l-4.3,2.5c-5.5-3.5-10.6-7.1-15.8-11l7.1-1.8c4.2,3.5,8.4,7.1,12.9,10.1H135.1z M111.4,688.1l0.4,0.2l-8.1,2.2
	c-5.8-4.9-11.4-10.1-16.6-15.5h12.2C103.2,679.5,107.1,683.8,111.4,688.1L111.4,688.1z M90,662.7l0.2,0.4H76.5
	c-5.5-6.7-10.4-13.9-14.8-21.4l18.6,5c2.8,5.6,6,10.9,9.6,16.1H90z M73,628.3v0.4l-19.8-5.4c-3.4-8.8-5.6-18.1-6.4-27.5l21.9,12.6
	C69.5,615.2,70.9,621.8,73,628.3z M280.2,492.3c8.7,2.2,17.1,4.7,25.3,7.6v0.4c-4.3-1.3-8.8-2.5-13.3-3.5
	C187.5,470.6,88.5,506.4,71,576.6c-1.1,4.6-1.9,9.4-2.3,14.1l-21.2-12.3c0.4-3.1,1-6.2,1.7-9.2c17.6-70.6,126.2-103,231.2-76.8
	L280.2,492.3z"/>
<path class="st2" d="M336.9,363.6c91.2,109.4-39.4,230.3-170.4,201.2v-0.4c116,11,200.7-135.6,117.2-225.1l0.2-0.4L336.9,363.6z"/>
<path class="st0" d="M229.1,433.5l-0.2,0.4c-64.1-25.4-130.6-26.1-151.8,2.8c-27,37.3,11.9,108.9,87.6,159.8s158.8,61.7,186,24.4
	c13.1-18,15.5-43.5,6-70.9h0.4c13,26.9,15.1,52.8,3.5,72.9c-27.5,47.3-123.9,51.3-211.7,0.6S3,489.4,30.4,442
	C55.6,398.4,148.2,394.3,229.1,433.5z"/>
</svg>
